HIERARCHY
ROOT hip
{
	OFFSET 0.000000 0.000000 0.000000 
	CHANNELS 6 Xposition Yposition Zposition Xrotation Zrotation Yrotation
	JOINT abdomen
	{
		OFFSET 0.000000 3.402643 0.000000 
		CHANNELS 3 Xrotation Zrotation Yrotation
		JOINT chest
		{
			OFFSET 0.000000 8.438565 -0.680529 
			CHANNELS 3 Xrotation Zrotation Yrotation
			JOINT neck
			{
				OFFSET 0.000000 10.207942 -0.272212 
				CHANNELS 3 Xrotation Zrotation Yrotation
				JOINT head
				{
					OFFSET 0.000000 3.130431 0.000000 
					CHANNELS 3 Xrotation Zrotation Yrotation
					End Site
					{
						OFFSET 0.000000 3.130435 0.000000 
					}
				}
			}
			JOINT lCollar
			{
				OFFSET 3.470700 6.669187 -0.816635 
				CHANNELS 3 Yrotation Zrotation Xrotation
				JOINT lShldr
				{
					OFFSET 3.198488 0.000000 0.000000 
					CHANNELS 3 Zrotation Yrotation Xrotation
					JOINT lForeArm
					{
						OFFSET 10.139888 0.000000 0.000000 
						CHANNELS 3 Yrotation Zrotation Xrotation
						JOINT lHand
						{
							OFFSET 8.370511 0.000000 0.000000 
							CHANNELS 3 Zrotation Yrotation Xrotation
							End Site
							{
								OFFSET 4.083176 0.000000 0.000000 
							}
						}
					}
				}
			}
			JOINT rCollar
			{
				OFFSET -3.470700 6.669187 -0.816635 
				CHANNELS 3 Yrotation Zrotation Xrotation
				JOINT rShldr
				{
					OFFSET -3.198488 0.000000 0.000000 
					CHANNELS 3 Zrotation Yrotation Xrotation
					JOINT rForeArm
					{
						OFFSET -10.139888 0.000000 0.000000 
						CHANNELS 3 Yrotation Zrotation Xrotation
						JOINT rHand
						{
							OFFSET -8.370511 0.000000 0.000000 
							CHANNELS 3 Zrotation Yrotation Xrotation
							End Site
							{
								OFFSET -4.083176 0.000000 0.000000 
							}
						}
					}
				}
			}
		}
	}
	JOINT lThigh
	{
		OFFSET 5.308129 -1.633274 1.361059 
		CHANNELS 3 Xrotation Zrotation Yrotation
		JOINT lShin
		{
			OFFSET -2.041588 -20.007561 0.000000 
			CHANNELS 3 Xrotation Zrotation Yrotation
			JOINT lFoot
			{
				OFFSET 0.000000 -19.190928 -1.224953 
				CHANNELS 3 Xrotation Yrotation Zrotation
				End Site
				{
					OFFSET 0.000000 -2.449906 4.627600 
				}
			}
		}
	}
	JOINT rThigh
	{
		OFFSET -5.308129 -1.633274 1.361059 
		CHANNELS 3 Xrotation Zrotation Yrotation
		JOINT rShin
		{
			OFFSET 2.041588 -20.007561 0.000000 
			CHANNELS 3 Xrotation Zrotation Yrotation
			JOINT rFoot
			{
				OFFSET 0.000000 -19.190928 -1.224953 
				CHANNELS 3 Xrotation Yrotation Zrotation
				End Site
				{
					OFFSET 0.000000 -2.449906 4.627600 
				}
			}
		}
	}
}
MOTION
Frames: 8
Frame Time: 0.016667
0.294865 54.104809 -5.734946 -4.635967 2.969491 6.434824 27.525124 -2.946932 -0.120199 -2.828034 -1.025374 0.468698 -9.034564 -7.436729 0.722992 1.474468 -12.196912 63.773949 -3.128960 -5.776057 -0.296708 -51.117615 6.447636 -5.041642 -7.643124 -5.000000 45.000000 -43.128170 11.473871 20.839170 9.579021 -0.845944 0.046060 72.865097 -26.964268 -31.130510 11.507761 5.000000 45.000000 21.613939 -18.993181 16.904816 5.742473 8.817568 -10.822072 -1.022528 -5.298775 -0.111451 -0.720907 9.832375 -5.081584 12.746943 -7.575319 -13.691715 -1.481336 2.610179 -0.000274 -3.830875 -12.479581 6.349910 
0.296330 54.106289 -5.734855 -4.636980 2.969605 6.415319 27.514765 -2.935500 -0.095060 -2.857385 -1.035140 0.458932 -8.936133 -7.476813 0.719261 1.467911 -12.214171 63.780144 -3.158462 -5.815067 -0.298721 -51.080959 6.518254 -5.058200 -7.687005 -5.000000 45.000000 -43.197952 11.507959 20.791235 9.657130 -0.826439 0.045051 72.864662 -27.036148 -31.180790 11.523587 5.000000 45.000000 21.594244 -18.996368 16.949884 5.723128 8.808307 -10.803311 -0.964296 -5.289748 -0.116626 -0.567287 9.829159 -5.123835 12.746902 -7.575348 -13.661934 -1.494248 2.624523 -0.021344 -3.830971 -12.496138 6.364183 
0.297861 54.106873 -5.735651 -4.635967 2.969491 6.434824 27.485422 -2.917149 -0.087768 -2.866975 -1.035141 0.439402 -8.886280 -7.497589 0.711336 1.472259 -12.230973 63.777573 -3.158566 -5.834572 -0.299727 -51.072067 6.538979 -5.066114 -7.694277 -5.000000 45.000000 -43.189598 11.438140 20.812981 9.715590 -0.837839 0.035931 72.888451 -27.087082 -31.221632 11.540993 5.000000 45.000000 21.579905 -19.028610 16.960299 5.700133 8.801791 -10.804836 -0.933901 -5.285971 -0.148456 -0.488857 9.798564 -5.141021 12.750902 -7.586525 -13.673536 -1.493178 2.613896 -0.020552 -3.813766 -12.412812 6.401409 
0.299423 54.106873 -5.737035 -4.633347 2.979023 6.464081 27.466391 -2.891942 -0.098757 -2.857033 -1.035142 0.439404 -8.857106 -7.507244 0.712795 1.496484 -12.243008 63.760040 -3.138983 -5.824819 -0.299224 -51.081310 6.531983 -5.059647 -7.689058 -5.000000 45.000000 -43.148895 11.311409 20.867371 9.754671 -0.867104 0.037444 72.937416 -27.107700 -31.260303 11.556035 5.000000 45.000000 21.567797 -19.093513 16.941450 5.680248 8.791671 -10.855322 -0.895979 -5.282083 -0.132335 -0.444350 9.776482 -5.132377 12.748133 -7.556575 -13.717931 -1.492014 2.591281 -0.039370 -3.813415 -12.463186 6.348211 
0.301302 54.106873 -5.738694 -4.631821 2.978850 6.493338 27.447363 -2.875877 -0.113175 -2.846914 -1.035144 0.419876 -8.837694 -7.516899 0.714254 1.504736 -12.267547 63.737892 -3.129269 -5.834571 -0.299727 -51.081860 6.538116 -5.067226 -7.692690 -5.000000 45.000000 -43.113808 11.231173 20.908451 9.784136 -0.894707 0.048580 72.978958 -27.136219 -31.308205 11.575047 5.000000 45.000000 21.541298 -19.136019 16.937756 5.671927 8.784945 -10.895894 -0.886438 -5.293096 -0.113357 -0.427960 9.743218 -5.125876 12.752191 -7.567709 -13.769244 -1.484518 2.595191 -0.049144 -3.771145 -12.403313 6.355205 
0.304424 54.106873 -5.741463 -4.648118 2.998139 6.513353 27.466986 -2.884842 -0.117337 -2.846866 -1.025378 0.419877 -8.837574 -7.507244 0.712795 1.529094 -12.312819 63.704464 -3.178200 -5.854076 -0.300734 -51.075718 6.589511 -5.114150 -7.732233 -5.000000 45.000000 -43.092480 11.304074 20.920368 9.793757 -0.906121 0.039462 72.999725 -27.150465 -31.329948 11.586928 5.000000 45.000000 21.507145 -19.099113 16.917389 5.673932 8.758098 -10.897618 -0.874721 -5.275479 -0.124373 -0.429114 9.797024 -5.073745 12.762013 -7.587825 -13.792857 -1.453110 2.591312 -0.027235 -3.786921 -12.467025 6.328335 
0.307552 54.106873 -5.744227 -4.663805 3.027189 6.523109 27.486141 -2.888608 -0.109151 -2.846817 -1.015613 0.419877 -8.837332 -7.487934 0.709876 1.543725 -12.358156 63.669014 -3.227133 -5.873581 -0.301740 -51.059052 6.643256 -5.145098 -7.779947 -5.000000 45.000000 -43.072514 11.370286 20.925323 9.803684 -0.914212 0.049588 73.011116 -27.169775 -31.347246 11.597202 5.000000 45.000000 21.479723 -19.068657 16.905573 5.659301 8.731929 -10.920775 -0.866755 -5.285959 -0.095664 -0.414068 9.765965 -5.043848 12.778695 -7.615413 -13.818152 -1.441972 2.608298 -0.036907 -3.808732 -12.501929 6.288670 
0.309496 54.105694 -5.747068 -4.673137 3.017309 6.552364 27.476480 -2.867316 -0.110396 -2.856237 -1.015614 0.400349 -8.787116 -7.479743 0.698843 1.551473 -12.359707 63.606022 -3.267145 -5.863273 -0.310935 -51.072891 6.706645 -5.194582 -7.811548 -5.000000 45.000000 -43.077862 11.453518 20.917711 9.862123 -0.915885 0.039968 73.047203 -27.209015 -31.409138 11.612281 5.000000 45.000000 21.485138 -19.106571 16.906466 5.672587 8.746091 -10.929810 -0.865927 -5.286567 -0.115158 -0.432784 9.789951 -5.054154 12.778705 -7.615400 -13.828079 -1.434663 2.612705 -0.026717 -3.777457 -12.477432 6.314229 
